<svg height="512" viewBox="0 0 64 64" width="512" xmlns="http://www.w3.org/2000/svg"><g id="Brain-Learning-Exercise-Gym-Head"><path d="m42 51.96v9.04h-20v-9.04a17.967 17.967 0 0 0 20 0z" fill="#ffc477"/><path d="m13 13h38v6h-38z" fill="#d8d7da"/><g fill="#ffb655"><path d="m17 31v8h-3a4 4 0 0 1 0-8z"/><path d="m50 31h-2v8h2a4 4 0 0 0 0-8z"/><path d="m42 51.96v3a17.967 17.967 0 0 1 -20 0v-3a17.967 17.967 0 0 0 20 0z"/></g><path d="m14 28c0 2.21 8.06 4 18 4s18-1.79 18-4v10c0 .33-.01.67-.03 1a17.99 17.99 0 0 1 -27.97 13.96 17.722 17.722 0 0 1 -2.73-2.23 17.987 17.987 0 0 1 -5.24-11.73c-.02-.33-.03-.67-.03-1z" fill="#ffc477"/><path d="m57 13h4v6h-4z" fill="#d8d7da"/><path d="m57 13v11a1 1 0 0 1 -1 1h-4a1 1 0 0 1 -1-1v-16a1 1 0 0 1 1-1h4a1 1 0 0 1 1 1z" fill="#898890"/><ellipse cx="32" cy="28" fill="#ffb655" rx="18" ry="4"/><path d="m26 6 1-3h3l2 2v22l-2 2h-3l-1-3-4-1v-.33-1.67l-3-3v-1-4l1.33-2 .67-1v-4l2-2z" fill="#ff9811"/><path d="m3 13h4v6h-4z" fill="#d8d7da"/><path d="m43 12 .67 1 1.33 2v4 1l-3 3v1.67.33l-4 1-1 3h-3l-2-2v-22l2-2h3l1 3h3l2 2z" fill="#ff9811"/><path d="m13 19v5a1 1 0 0 1 -1 1h-4a1 1 0 0 1 -1-1v-16a1 1 0 0 1 1-1h4a1 1 0 0 1 1 1z" fill="#898890"/><path d="m38.707 15.293-1.707-1.707v-2.586h-2v3a1 1 0 0 0 .293.707l2 2z"/><path d="m37.707 18.293-1.414 1.414.707.707v1.586h2v-2a1 1 0 0 0 -.293-.707z"/><path d="m28.707 14.707a1 1 0 0 0 .293-.707v-3h-2v2.586l-1.707 1.707 1.414 1.414z"/><path d="m27 20.414.707-.707-1.414-1.414-1 1a1 1 0 0 0 -.293.707v2h2z"/><path d="m32 46a3 3 0 0 0 3-3v-6h-2v6a1 1 0 0 1 -2 0v-6h-2v6a3 3 0 0 0 3 3z"/><path d="m41 35a3 3 0 0 0 -3 3h2a1 1 0 0 1 2 0h2a3 3 0 0 0 -3-3z"/><path d="m23 35a3 3 0 0 0 -3 3h2a1 1 0 0 1 2 0h2a3 3 0 0 0 -3-3z"/><path d="m32 49c-2.71 0-5-1.374-5-3h-2c0 2.8 3.075 5 7 5s7-2.2 7-5h-2c0 1.626-2.29 3-5 3z"/><path d="m61 12h-3v-4a2.006 2.006 0 0 0 -2-2h-4a2.006 2.006 0 0 0 -2 2v4h-5.8l-.2-.3v-3.7a1.033 1.033 0 0 0 -.29-.71l-2-2a1.033 1.033 0 0 0 -.71-.29h-2.28l-.77-2.32a1.014 1.014 0 0 0 -.95-.68h-3a1.033 1.033 0 0 0 -.71.29l-1.29 1.3-1.29-1.3a1.033 1.033 0 0 0 -.71-.29h-3a1.014 1.014 0 0 0 -.95.68l-.77 2.32h-2.28a1.033 1.033 0 0 0 -.71.29l-2 2a1.033 1.033 0 0 0 -.29.71v3.7l-.2.3h-5.8v-4a2.006 2.006 0 0 0 -2-2h-4a2.006 2.006 0 0 0 -2 2v4h-3a1 1 0 0 0 -1 1v6a1 1 0 0 0 1 1h3v4a2.006 2.006 0 0 0 2 2h4a2.006 2.006 0 0 0 2-2v-4h4a1.033 1.033 0 0 0 .29.71l2.71 2.7v.41c-5.31.89-8 2.29-8 4.18v2.1a5 5 0 0 0 .1 9.81 18.989 18.989 0 0 0 7.9 13.55v7.54a1 1 0 0 0 1 1h20a1 1 0 0 0 1-1v-7.54a18.989 18.989 0 0 0 7.9-13.55 5 5 0 0 0 .1-9.81v-2.1c0-1.89-2.69-3.29-8-4.18v-.41l2.71-2.7a1.033 1.033 0 0 0 .29-.71h4v4a2.006 2.006 0 0 0 2 2h4a2.006 2.006 0 0 0 2-2v-4h3a1 1 0 0 0 1-1v-6a1 1 0 0 0 -1-1zm-55 6h-2v-4h2zm6 1v5h-4v-16h4zm6.17-4.55a.967.967 0 0 0 -.17.55v3h-4v-4h4.46zm-5.17 23.37a2.988 2.988 0 0 1 0-5.64zm38-5.64a2.988 2.988 0 0 1 0 5.64zm-31-12.59v-4.29l1.16-1.73.84.84v.59h2v-1a1.033 1.033 0 0 0 -.29-.71l-1.71-1.7v-3.18l1.41-1.41h2.18l1.41 1.41v.59h2v-1a1.033 1.033 0 0 0 -.29-.71l-1.57-1.56.58-1.73h1.87l1.41 1.41v21.18l-1.41 1.41h-1.87l-.58-1.73 1.57-1.56a1.033 1.033 0 0 0 .29-.71v-1h-2v.59l-1.31 1.3-2.69-.67v-5.22h-2v1.59zm21 40.41h-18v-5.27a18.976 18.976 0 0 0 18 0zm8-22a17 17 0 0 1 -34 0v-7.54c3.7 1.95 11.72 2.54 17 2.54s13.3-.59 17-2.54zm0-10.02c-.29 1.06-6.39 3.02-17 3.02s-16.69-1.96-17-2.98v-.01c.09-.27 1.42-1.4 6.39-2.23a1.179 1.179 0 0 0 .37.19l3.47.87.82 2.48a1.014 1.014 0 0 0 .95.68h3a1.033 1.033 0 0 0 .71-.29l1.29-1.3 1.29 1.3a1.033 1.033 0 0 0 .71.29h3a1.014 1.014 0 0 0 .95-.68l.82-2.48 3.47-.87a1.179 1.179 0 0 0 .37-.19c4.99.83 6.32 1.96 6.39 2.2zm-5-8.39-1 1v-1.59h-2v5.22l-2.69.67-1.31-1.3v-.59h-2v1a1.033 1.033 0 0 0 .29.71l1.57 1.56-.58 1.73h-1.87l-1.41-1.41v-21.18l1.41-1.41h1.87l.58 1.73-1.57 1.56a1.033 1.033 0 0 0 -.29.71v1h2v-.59l1.41-1.41h2.18l1.41 1.41v3.18l-1.71 1.7a1.033 1.033 0 0 0 -.29.71v1h2v-.59l.84-.84 1.16 1.73zm6-1.59h-4v-3a.967.967 0 0 0 -.17-.55l-.29-.45h4.46zm6 6h-4v-16h4zm4-6h-2v-4h2z"/></g></svg>