<svg id="Filled" height="512" viewBox="0 0 512 512" width="512" xmlns="http://www.w3.org/2000/svg"><path d="m415.3 169.846c0-41.134-32.792-74.413-73.026-73.839-39.229.56-71.05 33.747-70.974 73.985a74.312 74.312 0 0 0 30.937 60.519 12.309 12.309 0 0 1 5.063 10.038l.033 31.451h72l-.034-31.452a12.328 12.328 0 0 1 5.081-10.05 74.318 74.318 0 0 0 30.92-60.652z" fill="#f7b030"/><rect fill="#c3c6c7" height="32" rx="16" width="96" x="295.299" y="256"/><path d="m311.3 288h64a0 0 0 0 1 0 0v16a16 16 0 0 1 -16 16h-32a16 16 0 0 1 -16-16v-16a0 0 0 0 1 0 0z" fill="#dadcde"/><path d="m360 440h112a16 16 0 0 1 16 16v16a16 16 0 0 1 -16 16h-201.837c-4.071 0-162.092-32-166.163-32h-32v-144h72c40 0 120 72 120 72l80 24s16 8 16 16v16a16 16 0 0 1 -16 16l-80-16-56-32" fill="#f7cca9"/><path d="m24 296h48v176h-48z" fill="#2d85cc"/><path d="m389.028 237.01a83.046 83.046 0 0 0 9.772-126.11 78.519 78.519 0 0 0 -56.645-22.893c-43.567.621-78.943 37.405-78.859 82a82.537 82.537 0 0 0 34.292 67.016 4.3 4.3 0 0 1 1.708 3.526v10.68a23.987 23.987 0 0 0 4 43.4v9.371a24.027 24.027 0 0 0 24 24h32a24.028 24.028 0 0 0 24-24v-9.376a23.987 23.987 0 0 0 4-43.4v-10.676a4.312 4.312 0 0 1 1.732-3.538zm-109.728-67.032c-.068-35.879 28.233-65.474 63.088-65.971.3 0 .608-.007.913-.007a62.694 62.694 0 0 1 44.27 18.3 67.046 67.046 0 0 1 -7.838 101.69 20.343 20.343 0 0 0 -8.433 16.562v7.448h-56v-7.451a20.316 20.316 0 0 0 -8.418-16.549 66.505 66.505 0 0 1 -27.582-54.022zm80 142.022h-32a8.009 8.009 0 0 1 -8-8v-8h48v8a8.009 8.009 0 0 1 -8 8zm16-32h-64a8 8 0 0 1 0-16h64a8 8 0 0 1 0 16z"/><path d="m356.27 138.543a36.163 36.163 0 0 1 20.839 23.624 8 8 0 0 0 15.4-4.334 52.282 52.282 0 0 0 -30.184-34.1 8 8 0 0 0 -6.058 14.809z"/><path d="m351.3 64v-16a8 8 0 0 0 -16 0v16a8 8 0 0 0 16 0z"/><path d="m297.749 81.685a8.005 8.005 0 0 0 7.3-11.256l-6.508-14.617a8 8 0 0 0 -14.617 6.508l6.508 14.617a8 8 0 0 0 7.317 4.748z"/><path d="m260.064 109.058a8 8 0 0 0 5.355-13.946l-11.89-10.706a8 8 0 0 0 -10.706 11.894l11.89 10.7a7.97 7.97 0 0 0 5.351 2.058z"/><path d="m244.389 143.861a8 8 0 0 0 -5.137-10.08l-15.217-4.943a8 8 0 1 0 -4.943 15.217l15.217 4.945a7.99 7.99 0 0 0 10.08-5.137z"/><path d="m231.076 179.751-15.912 1.673a8 8 0 1 0 1.672 15.912l15.913-1.673a8 8 0 0 0 -1.673-15.912z"/><path d="m453.849 195.663 15.912 1.673a8 8 0 0 0 1.674-15.912l-15.913-1.673a8 8 0 1 0 -1.673 15.912z"/><path d="m449.815 149.392a7.987 7.987 0 0 0 2.474-.394l15.217-4.943a8 8 0 1 0 -4.944-15.217l-15.216 4.943a8 8 0 0 0 2.469 15.611z"/><path d="m431.885 107 11.889-10.7a8 8 0 1 0 -10.707-11.891l-11.889 10.703a8 8 0 0 0 10.707 11.888z"/><path d="m388.849 81.685a8 8 0 0 0 7.313-4.748l6.508-14.617a8 8 0 0 0 -14.617-6.508l-6.508 14.617a8.005 8.005 0 0 0 7.3 11.256z"/><path d="m472 424h-104v-8c0-12.011-15.632-20.76-20.422-23.155a8.052 8.052 0 0 0 -1.279-.508l-78.3-23.491c-4.955-4.377-22.666-19.747-44.32-35.338-34.572-24.889-61.379-37.508-79.679-37.508h-64v-8a8 8 0 0 0 -8-8h-48a8 8 0 0 0 -8 8v176a8 8 0 0 0 8 8h48a8 8 0 0 0 8-8v-8h23.627c4.991.664 45.817 8.724 81.905 15.849 72.183 14.251 82.38 16.151 84.631 16.151h201.837a24.028 24.028 0 0 0 24-24v-16a24.028 24.028 0 0 0 -24-24zm-408 32h-32v-160h32zm416 8a8.009 8.009 0 0 1 -8 8h-201.464c-4.991-.664-45.817-8.724-81.9-15.849-72.188-14.251-82.385-16.151-84.636-16.151h-24v-128h64c30.271 0 93.023 50.491 114.649 69.947a8.013 8.013 0 0 0 3.052 1.716l79.3 23.791c4.981 2.606 10.233 6.793 10.994 8.79v15.756a8.012 8.012 0 0 1 -7.342 7.974l-77.811-15.564-54.873-31.356a8 8 0 1 0 -7.938 13.892l56 32a8 8 0 0 0 2.4.9l80 16a8.026 8.026 0 0 0 1.569.154 24.042 24.042 0 0 0 22.629-16h105.371a8.009 8.009 0 0 1 8 8z"/></svg>