<?xml version="1.0" encoding="iso-8859-1"?>
<!-- Generator: Adobe Illustrator 19.0.0, SVG Export Plug-In . SVG Version: 6.00 Build 0)  -->
<svg xmlns="http://www.w3.org/2000/svg" xmlns:xlink="http://www.w3.org/1999/xlink" version="1.1" id="Layer_1" x="0px" y="0px" viewBox="0 0 495.58 495.58" style="enable-background:new 0 0 495.58 495.58;" xml:space="preserve" width="512" height="512">
<g>
	<path style="fill:#FFDA44;" d="M426.125,50.04v430.54c0,8.28-6.72,15-15,15H84.455c-8.28,0-15-6.72-15-15V50.04   c0-8.29,6.72-15,15-15h326.67C419.405,35.04,426.125,41.75,426.125,50.04z"/>
	<path style="fill:#FFB655;" d="M426.125,50.04v430.54c0,8.28-6.72,15-15,15H247.79V35.04h163.335   C419.405,35.04,426.125,41.75,426.125,50.04z"/>
	<path style="fill:#046EFF;" d="M338.905,15v40.08c0,8.28-6.72,15-15,15h-152.23c-8.28,0-15-6.72-15-15V15c0-8.28,6.72-15,15-15   h152.23C332.185,0,338.905,6.72,338.905,15z"/>
	<path style="fill:#0051BF;" d="M338.9,15v40.08c0,8.28-6.71,15-15,15h-76.11V0h76.11C332.19,0,338.9,6.72,338.9,15z"/>
	<path style="fill:#046EFF;" d="M138.988,182.53h-21.767c-6.352,0-11.5,5.149-11.5,11.5c0,5.99,0,53.189,0,61.339   c0,6.351,5.148,11.5,11.5,11.5s11.5-5.149,11.5-11.5v-12.704h10.267c16.579,0,30.067-13.488,30.067-30.068   C169.056,196.018,155.567,182.53,138.988,182.53z M138.988,219.665h-10.267V205.53h10.267c3.896,0,7.067,3.17,7.067,7.068   C146.056,216.495,142.885,219.665,138.988,219.665z"/>
	<path style="fill:#046EFF;" d="M209.088,182.53c-17.925,0-32.508,14.583-32.508,32.507v40.333c0,6.351,5.148,11.5,11.5,11.5   s11.5-5.149,11.5-11.5v-10.265h19.015v10.265c0,6.351,5.148,11.5,11.5,11.5s11.5-5.149,11.5-11.5v-40.333   C241.595,197.112,227.013,182.53,209.088,182.53z M199.58,222.104v-7.067c0-5.242,4.266-9.507,9.508-9.507s9.507,4.265,9.507,9.507   v7.067H199.58z"/>
	<path style="fill:#0051BF;" d="M281.734,205.53h25c6.352,0,11.5-5.149,11.5-11.5s-5.148-11.5-11.5-11.5h-25   c-14.797,0-26.835,12.038-26.835,26.835c0,14.796,12.038,26.834,26.835,26.834h9.665c2.114,0,3.835,1.72,3.835,3.835   s-1.721,3.835-3.835,3.835h-25c-6.352,0-11.5,5.149-11.5,11.5s5.148,11.5,11.5,11.5h25c14.797,0,26.835-12.038,26.835-26.835   s-12.038-26.835-26.835-26.835h-9.665c-2.114,0-3.835-1.72-3.835-3.834C277.899,207.25,279.62,205.53,281.734,205.53z"/>
	<path style="fill:#0051BF;" d="M365.693,213.199h-9.664c-2.114,0-3.835-1.72-3.835-3.834c0-2.115,1.721-3.835,3.835-3.835h24.999   c6.352,0,11.5-5.149,11.5-11.5s-5.148-11.5-11.5-11.5h-24.999c-14.797,0-26.835,12.038-26.835,26.835   c0,14.796,12.038,26.834,26.835,26.834h9.664c2.114,0,3.835,1.72,3.835,3.835s-1.721,3.835-3.835,3.835h-24.999   c-6.352,0-11.5,5.149-11.5,11.5s5.148,11.5,11.5,11.5h24.999c14.797,0,26.835-12.038,26.835-26.835S380.49,213.199,365.693,213.199   z"/>
	<path style="fill:#8CBCFF;" d="M396.025,150c0,8.28-6.71,15-15,15h-263.8c-8.29,0-15-6.72-15-15c0-8.29,6.71-15,15-15h263.8   C389.315,135,396.025,141.71,396.025,150z"/>
	<path style="fill:#6AA9FF;" d="M396.025,150c0,8.28-6.71,15-15,15H247.79v-30h133.235C389.315,135,396.025,141.71,396.025,150z"/>
	<path style="fill:#8CBCFF;" d="M396.025,303.92c0,8.28-6.71,15-15,15h-263.8c-8.29,0-15-6.72-15-15c0-8.29,6.71-15,15-15h263.8   C389.315,288.92,396.025,295.63,396.025,303.92z"/>
	<path style="fill:#6AA9FF;" d="M396.025,303.92c0,8.28-6.71,15-15,15H247.79v-30h133.235   C389.315,288.92,396.025,295.63,396.025,303.92z"/>
	<path style="fill:#046EFF;" d="M307.73,375.24c-2.73,2.731-57.33,57.339-59.94,59.95l-4.06,4.06c-5.86,5.85-15.36,5.85-21.21,0   l-32-32.01c-5.87-5.85-5.87-15.35,0-21.21c5.85-5.86,15.35-5.86,21.21,0l21.39,21.4l14.67-14.67   c2.121-2.121,36.802-36.801,38.73-38.729c5.85-5.86,15.35-5.86,21.21,0C313.59,359.89,313.59,369.38,307.73,375.24z"/>
	<path style="fill:#0051BF;" d="M307.73,375.24c-2.73,2.731-57.33,57.339-59.94,59.95v-42.43   c2.121-2.121,36.802-36.801,38.73-38.729c5.85-5.86,15.35-5.86,21.21,0C313.59,359.89,313.59,369.38,307.73,375.24z"/>
</g>















</svg>
